<svg id="Layer_1" data-name="Layer 1" xmlns="http://www.w3.org/2000/svg" xmlns:xlink="http://www.w3.org/1999/xlink" viewBox="0 0 541.59 478.95"><defs><style>.cls-1{fill:url(#linear-gradient);}.cls-2{fill:url(#linear-gradient-2);}.cls-3{fill:url(#linear-gradient-3);}.cls-4{fill:url(#linear-gradient-4);}.cls-5{fill:url(#linear-gradient-5);}.cls-6{fill:url(#linear-gradient-6);}.cls-7{fill:url(#linear-gradient-7);}.cls-8{fill:url(#linear-gradient-8);}.cls-9{fill:url(#linear-gradient-9);}.cls-10{fill:url(#linear-gradient-10);}.cls-11{fill:url(#linear-gradient-11);}.cls-12{fill:url(#linear-gradient-12);}.cls-13{fill:url(#linear-gradient-13);}.cls-14{fill:url(#linear-gradient-14);}.cls-15{fill:url(#linear-gradient-15);}.cls-16{font-size:78.32px;fill:#fff;font-family:SKPrimo-Regular, SK Primo;}.cls-17{letter-spacing:-0.17em;}</style><linearGradient id="linear-gradient" x1="154.47" y1="243.72" x2="376.79" y2="243.72" gradientUnits="userSpaceOnUse"><stop offset="0" stop-color="#fff"/><stop offset="0" stop-color="#231f20"/></linearGradient><linearGradient id="linear-gradient-2" x1="182.99" y1="79.97" x2="230.36" y2="79.97" xlink:href="#linear-gradient"/><linearGradient id="linear-gradient-3" x1="304.89" y1="79.97" x2="348.03" y2="79.97" xlink:href="#linear-gradient"/><linearGradient id="linear-gradient-4" x1="338.08" y1="404.44" x2="376.79" y2="404.44" xlink:href="#linear-gradient"/><linearGradient id="linear-gradient-5" x1="154.47" y1="404.44" x2="190.97" y2="404.44" xlink:href="#linear-gradient"/><linearGradient id="linear-gradient-6" x1="476.81" y1="59.13" x2="522.04" y2="59.13" xlink:href="#linear-gradient"/><linearGradient id="linear-gradient-7" x1="376.79" y1="239.24" x2="541.59" y2="239.24" xlink:href="#linear-gradient"/><linearGradient id="linear-gradient-8" x1="9.76" y1="239.16" x2="166.39" y2="239.16" xlink:href="#linear-gradient"/><linearGradient id="linear-gradient-9" x1="0" y1="412.58" x2="49.52" y2="412.58" xlink:href="#linear-gradient"/><linearGradient id="linear-gradient-10" x1="7.81" y1="61.31" x2="49.95" y2="61.31" xlink:href="#linear-gradient"/><linearGradient id="linear-gradient-11" x1="492.21" y1="412.94" x2="537.2" y2="412.94" xlink:href="#linear-gradient"/><linearGradient id="linear-gradient-12" x1="364.87" y1="450.69" x2="539.78" y2="450.69" gradientTransform="matrix(1.11, -0.15, -0.15, 1.21, 11.72, -159.56)" xlink:href="#linear-gradient"/><linearGradient id="linear-gradient-13" x1="406.89" y1="160.16" x2="578.92" y2="160.16" gradientTransform="matrix(1.13, 0.17, 0.17, 1.21, -152.39, -123.55)" xlink:href="#linear-gradient"/><linearGradient id="linear-gradient-14" x1="37.66" y1="259.52" x2="212.57" y2="259.52" gradientTransform="matrix(1.08, -0.11, -0.11, 1.15, -8.33, -132.16)" xlink:href="#linear-gradient"/><linearGradient id="linear-gradient-15" x1="71.53" y1="329.75" x2="244.13" y2="329.75" gradientTransform="matrix(1.14, 0.18, 0.18, 1.23, -146.43, -117.32)" xlink:href="#linear-gradient"/></defs><title>button</title><rect class="cls-1" x="154.47" y="146.68" width="222.32" height="194.08"/><rect class="cls-2" x="182.99" y="3.15" width="47.37" height="153.64"/><rect class="cls-3" x="304.89" y="3.15" width="43.14" height="153.64"/><rect class="cls-4" x="338.08" y="330.65" width="38.71" height="147.58"/><rect class="cls-5" x="154.47" y="330.65" width="36.5" height="147.58"/><rect class="cls-6" x="476.81" width="45.23" height="118.27"/><rect class="cls-7" x="376.79" y="216.67" width="164.8" height="45.14"/><rect class="cls-8" x="9.76" y="216.67" width="156.62" height="44.98"/><rect class="cls-9" y="346.93" width="49.52" height="131.3"/><rect class="cls-10" x="7.81" y="3.15" width="42.14" height="116.32"/><rect class="cls-11" x="492.21" y="346.93" width="44.98" height="132.03"/><polygon class="cls-12" points="537.2 347.72 508.03 384.96 353.99 284.98 383.16 247.75 537.2 347.72"/><polygon class="cls-13" points="491.09 81.6 522.04 118.42 371.72 223.02 340.78 186.19 491.09 81.6"/><polygon class="cls-14" points="188.66 185.7 161.43 220.3 7.81 119.75 35.04 85.15 188.66 185.7"/><polygon class="cls-15" points="149.39 244.67 182.99 285.35 33.59 387.41 0 346.73 149.39 244.67"/><text class="cls-16" transform="translate(109.3 270.48)">S<tspan class="cls-17" x="64.77" y="0">t</tspan><tspan x="109.72" y="0">art</tspan></text></svg>